<?xml version="1.0" encoding="UTF-8"?>
<svg id="Layer_1" data-name="Layer 1" xmlns="http://www.w3.org/2000/svg" viewBox="0 0 500 500">
  <defs>
    <style>
      .cls-1, .cls-2 {
        opacity: .68;
      }

      .cls-3 {
        fill: #c8c8c8;
      }

      .cls-3, .cls-4 {
        stroke-width: 0px;
      }

      .cls-4 {
        fill: #f0f0f0;
      }

      .cls-2 {
        fill: none;
        stroke: #c8c8c8;
        stroke-linecap: round;
        stroke-linejoin: round;
        stroke-width: 20px;
      }
    </style>
  </defs>
  <g class="cls-1">
    <rect class="cls-4" x="30" y="30" width="440" height="440" rx="20" ry="20"/>
    <path class="cls-3" d="M450,40c5.51,0,10,4.49,10,10v400c0,5.51-4.49,10-10,10H50c-5.51,0-10-4.49-10-10V50c0-5.51,4.49-10,10-10h400M450,20H50c-16.57,0-30,13.43-30,30v400c0,16.57,13.43,30,30,30h400c16.57,0,30-13.43,30-30V50c0-16.57-13.43-30-30-30h0Z"/>
  </g>
  <polyline class="cls-2" points="56.8 406.4 148.8 314.4 342 443.2"/>
  <polyline class="cls-2" points="222.4 332.8 332.8 222.4 443.2 296"/>
  <g class="cls-1">
    <path class="cls-3" d="M149.26,176.52c-15.03,0-27.26-12.23-27.26-27.26s12.23-27.26,27.26-27.26,27.26,12.23,27.26,27.26-12.23,27.26-27.26,27.26Z"/>
    <path class="cls-3" d="M149.26,132c9.52,0,17.26,7.74,17.26,17.26s-7.74,17.26-17.26,17.26-17.26-7.74-17.26-17.26,7.74-17.26,17.26-17.26M149.26,112c-20.58,0-37.26,16.68-37.26,37.26s16.68,37.26,37.26,37.26,37.26-16.68,37.26-37.26-16.68-37.26-37.26-37.26h0Z"/>
  </g>
</svg>