<?xml version="1.0" encoding="utf-8"?>
<!-- Generator: Adobe Illustrator 28.0.0, SVG Export Plug-In . SVG Version: 6.00 Build 0)  -->
<svg version="1.1" id="Layer_1" xmlns="http://www.w3.org/2000/svg" xmlns:xlink="http://www.w3.org/1999/xlink" x="0px" y="0px"
	 viewBox="0 0 651.9 127.7" style="enable-background:new 0 0 651.9 127.7;" xml:space="preserve">
<style type="text/css">
	.st0{fill:none;}
	.st1{fill:#171617;}
</style>
<g>
	<line class="st0" x1="70.9" y1="0.1" x2="70.9" y2="0.1"/>
	<path class="st1" d="M113.4,49.7c0,11.7,9.5,21.3,21.3,21.3l0,0l0,0c3.9,0,7.1,3.2,7.1,7.1l0,0c0,3.9-3.2,7.1-7.1,7.1h-7.1h-7.1
		c-3.9,0-7.1,3.2-7.1,7.1l0,0c0,3.9,3.2,7.1,7.1,7.1h7.1h7.1c11.7,0,21.3-9.5,21.3-21.3l0,0c0-11.7-9.5-21.3-21.3-21.2l0,0
		c-3.9,0-7.1-3.2-7.1-7.1l0,0c0-3.9,3.2-7.1,7.1-7.1h7.1h7.1c3.9,0,7.1-3.2,7.1-7.1l0,0c0-3.9-3.2-7.1-7.1-7.1h-14.2l0,0
		C122.9,28.4,113.4,38,113.4,49.7L113.4,49.7z"/>
	<path class="st1" d="M177.2,99.3L177.2,99.3c-3.9,0-7.1-3.2-7.1-7.1l0,0c0-3.9,3.2-7.1,7.1-7.1l0,0c3.9,0,7.1,3.2,7.1,7.1l0,0
		C184.3,96.1,181.1,99.3,177.2,99.3z"/>
	<path class="st1" d="M240.9,28.4L240.9,28.4c0,7.8,6.3,14.2,14.2,14.2l0,0c15.7,0,28.3,12.7,28.3,28.3l0,0
		c0,15.7-12.7,28.3-28.3,28.3h-21.3c-3.9,0-7.1-3.2-7.1-7.1l0,0c0-3.9,3.2-7.1,7.1-7.1h21.3c7.8,0,14.2-6.3,14.2-14.2l0,0l0,0
		c0-7.8-6.3-14.2-14.2-14.2l0,0c-15.7,0-28.3-12.7-28.3-28.3l0,0c0-15.7,12.7-28.3,28.3-28.3h21.3c3.9,0,7.1,3.2,7.1,7.1l0,0
		c0,3.9-3.2,7.1-7.1,7.1h-21.3C247.3,14.3,240.9,20.6,240.9,28.4L240.9,28.4L240.9,28.4z"/>
	<path class="st1" d="M531.5,35.5L531.5,35.5c0,3.9-3.2,7.1-7.1,7.1l0,0l0,0c-3.9,0-7.1,3.2-7.1,7.1v42.5c0,3.9-3.2,7.1-7.1,7.1l0,0
		c-3.9,0-7.1-3.2-7.1-7.1V49.7c0-11.7,9.5-21.3,21.3-21.3l0,0C528.3,28.4,531.5,31.6,531.5,35.5z"/>
	<path class="st1" d="M138.2,7.2h-21.3c-2,0-3.5-1.6-3.5-3.5l0,0c0-2,1.6-3.5,3.5-3.5h21.3c2,0,3.5,1.6,3.5,3.5l0,0
		C141.7,5.6,140.1,7.2,138.2,7.2z"/>
	<path class="st1" d="M159.4,7.2L159.4,7.2c-2,0-3.5-1.6-3.5-3.5l0,0c0-2,1.6-3.5,3.5-3.5l0,0c2,0,3.5,1.6,3.5,3.5l0,0
		C163,5.6,161.4,7.2,159.4,7.2z"/>
	<path class="st1" d="M485.4,127.7h-21.3c-2,0-3.5-1.6-3.5-3.5l0,0c0-2,1.6-3.5,3.5-3.5h21.3c2,0,3.5,1.6,3.5,3.5l0,0
		C489,126.1,487.4,127.7,485.4,127.7z"/>
	<path class="st1" d="M506.7,127.7L506.7,127.7c-2,0-3.5-1.6-3.5-3.5l0,0c0-2,1.6-3.5,3.5-3.5l0,0c2,0,3.5,1.6,3.5,3.5l0,0
		C510.2,126.1,508.6,127.7,506.7,127.7z"/>
	<path class="st1" d="M556.3,99.3H535c-2,0-3.5-1.6-3.5-3.5l0,0c0-2,1.6-3.5,3.5-3.5h21.3c2,0,3.5,1.6,3.5,3.5l0,0
		C559.8,97.7,558.3,99.3,556.3,99.3z"/>
	<path class="st1" d="M577.6,99.3L577.6,99.3c-2,0-3.5-1.6-3.5-3.5l0,0c0-2,1.6-3.5,3.5-3.5l0,0c2,0,3.5,1.6,3.5,3.5l0,0
		C581.1,97.7,579.5,99.3,577.6,99.3z"/>
	<path class="st1" d="M202,35.5L202,35.5c-2,0-3.5-1.6-3.5-3.5l0,0c0-2,1.6-3.5,3.5-3.5l0,0c2,0,3.5,1.6,3.5,3.5l0,0
		C205.5,33.9,203.9,35.5,202,35.5z"/>
	<path class="st1" d="M357.9,7.2h-49.6c-2,0-3.5-1.6-3.5-3.5l0,0c0-2,1.6-3.5,3.5-3.5h49.6c2,0,3.5,1.6,3.5,3.5l0,0
		C361.4,5.6,359.8,7.2,357.9,7.2z"/>
	<path class="st1" d="M393.3,7.2L393.3,7.2c-2,0-3.5-1.6-3.5-3.5l0,0c0-2,1.6-3.5,3.5-3.5l0,0c2,0,3.5,1.6,3.5,3.5l0,0
		C396.9,5.6,395.3,7.2,393.3,7.2z"/>
	<path class="st1" d="M613,35.5h-49.6c-2,0-3.5-1.6-3.5-3.5l0,0c0-2,1.6-3.5,3.5-3.5H613c2,0,3.5,1.6,3.5,3.5l0,0
		C616.5,33.9,614.9,35.5,613,35.5z"/>
	<path class="st1" d="M648.4,35.5L648.4,35.5c-2,0-3.5-1.6-3.5-3.5l0,0c0-2,1.6-3.5,3.5-3.5l0,0c2,0,3.5,1.6,3.5,3.5l0,0
		C652,33.9,650.4,35.5,648.4,35.5z"/>
	<path class="st1" d="M432.3,56.8c0-15.7,12.7-28.4,28.4-28.3l0,0c15.6,0,28.3,12.7,28.3,28.3v35.5c0,3.9-3.2,7.1-7.1,7.1l0,0
		c-3.9,0-7.1-3.2-7.1-7.1V56.8c0-7.8-6.3-14.2-14.2-14.2l0,0c-7.8,0-14.2,6.3-14.2,14.2V71c0,7.8,6.3,14.2,14.2,14.2l0,0
		c3.9,0,7.1,3.2,7.1,7.1l0,0c0,3.9-3.2,7.1-7.1,7.1l0,0c-15.7,0-28.3-12.7-28.3-28.3L432.3,56.8L432.3,56.8z"/>
	<path class="st1" d="M326,99.3L326,99.3c-15.7,0-28.3-12.7-28.3-28.3V35.5c0-3.9,3.2-7.1,7.1-7.1l0,0c3.9,0,7.1,3.2,7.1,7.1v35.4
		c0,7.8,6.3,14.2,14.2,14.2l0,0h7c4,0,7.2-3.2,7.2-7.2V35.5c0-3.9,3.2-7.1,7.1-7.1l0,0c3.9,0,7.1,3.2,7.1,7.1v49.6
		c0,7.8-6.3,14.2-14.2,14.2H326z"/>
	<path class="st1" d="M99.2,21.4v70.9c0,3.9-3.2,7.1-7.1,7.1l0,0c-3.9,0-7.1-3.2-7.1-7.1V21.4c0-3.9-3.2-7.1-7.1-7.1l0,0
		c-3.9,0-7.1,3.2-7.1,7.1v14.2c0,11.7-9.5,21.3-21.3,21.3l0,0c-11.7,0-21.3-9.5-21.3-21.3V21.4c0-3.9-3.2-7.1-7.1-7.1l0,0
		c-3.9,0-7.1,3.2-7.1,7.1v70.9c0,3.9-3.2,7.1-7.1,7.1l0,0C3.2,99.3,0,96.1,0,92.2V21.3C0,9.6,9.5,0.1,21.3,0.1l0,0
		c11.7,0,21.2,9.5,21.2,21.3v14.2c0,3.9,3.2,7.1,7.1,7.1l0,0c3.9,0,7.1-3.2,7.1-7.1V21.4C56.7,9.6,66.2,0.1,78,0.1l0,0
		C89.7,0.1,99.2,9.6,99.2,21.4z"/>
	<path class="st1" d="M396.9,42.6c3.9,0,7.1,3.2,7.1,7.1v49.6l0,0c0,15.7,12.7,28.3,28.3,28.3l0,0c3.9,0,7.1-3.2,7.1-7.1l0,0
		c0-3.9-3.2-7.1-7.1-7.1l0,0c-7.8,0-14.2-6.3-14.2-14.2l0,0V42.6c0-7.8-6.3-14.2-14.2-14.2h-7.1c-15.7,0-28.3,12.7-28.3,28.3v21.4
		c0,11.7,9.5,21.3,21.3,21.3l0,0l0,0c3.9,0,7.1-3.2,7.1-7.1l0,0c0-3.9-3.2-7.1-7.1-7.1l0,0l0,0c-3.9,0-7.1-3.2-7.1-7.1V56.8
		C382.7,49,389,42.6,396.9,42.6"/>
</g>
</svg>
