<?xml version="1.0" encoding="utf-8"?>
<!-- Generator: Adobe Illustrator 28.0.0, SVG Export Plug-In . SVG Version: 6.00 Build 0)  -->
<svg version="1.1" id="Layer_1" xmlns="http://www.w3.org/2000/svg" xmlns:xlink="http://www.w3.org/1999/xlink" x="0px" y="0px"
	 viewBox="0 0 652.1 127.7" style="enable-background:new 0 0 652.1 127.7;" xml:space="preserve">
<style type="text/css">
	.st0{fill:none;}
	.st1{fill:#F2F0F0;}
</style>
<g>
	<line class="st0" x1="71.1" y1="0.1" x2="71.1" y2="0.1"/>
	<path class="st1" d="M113.6,49.7c0,11.7,9.5,21.3,21.3,21.3l0,0l0,0c3.9,0,7.1,3.2,7.1,7.1l0,0c0,3.9-3.2,7.1-7.1,7.1h-7.1h-7.1
		c-3.9,0-7.1,3.2-7.1,7.1l0,0c0,3.9,3.2,7.1,7.1,7.1h7.1h7.1c11.7,0,21.3-9.5,21.3-21.3l0,0c0-11.7-9.5-21.3-21.3-21.2l0,0
		c-3.9,0-7.1-3.2-7.1-7.1l0,0c0-3.9,3.2-7.1,7.1-7.1h7.1h7.1c3.9,0,7.1-3.2,7.1-7.1l0,0c0-3.9-3.2-7.1-7.1-7.1h-14.2l0,0
		C123.1,28.4,113.6,37.9,113.6,49.7L113.6,49.7z"/>
	<path class="st1" d="M177.4,99.3L177.4,99.3c-3.9,0-7.1-3.2-7.1-7.1l0,0c0-3.9,3.2-7.1,7.1-7.1l0,0c3.9,0,7.1,3.2,7.1,7.1l0,0
		C184.5,96.1,181.3,99.3,177.4,99.3z"/>
	<path class="st1" d="M241.1,28.4L241.1,28.4c0,7.8,6.3,14.2,14.2,14.2l0,0c15.7,0,28.3,12.7,28.3,28.3l0,0
		c0,15.7-12.7,28.3-28.3,28.3H234c-3.9,0-7.1-3.2-7.1-7.1l0,0c0-3.9,3.2-7.1,7.1-7.1h21.3c7.8,0,14.2-6.3,14.2-14.2l0,0l0,0
		c0-7.8-6.3-14.2-14.2-14.2l0,0c-15.7,0-28.3-12.7-28.3-28.3l0,0C227,12.6,239.7,0,255.3,0h21.3c3.9,0,7.1,3.2,7.1,7.1l0,0
		c0,3.9-3.2,7.1-7.1,7.1h-21.3C247.5,14.3,241.1,20.6,241.1,28.4L241.1,28.4L241.1,28.4z"/>
	<path class="st1" d="M531.7,35.5L531.7,35.5c0,3.9-3.2,7.1-7.1,7.1l0,0l0,0c-3.9,0-7.1,3.2-7.1,7.1v42.5c0,3.9-3.2,7.1-7.1,7.1l0,0
		c-3.9,0-7.1-3.2-7.1-7.1V49.7c0-11.7,9.5-21.3,21.3-21.3l0,0C528.5,28.4,531.7,31.6,531.7,35.5z"/>
	<path class="st1" d="M138.4,7.2h-21.3c-2,0-3.5-1.6-3.5-3.5l0,0c0-2,1.6-3.5,3.5-3.5h21.3c2,0,3.5,1.6,3.5,3.5l0,0
		C141.9,5.6,140.3,7.2,138.4,7.2z"/>
	<path class="st1" d="M159.6,7.2L159.6,7.2c-2,0-3.5-1.6-3.5-3.5l0,0c0-2,1.6-3.5,3.5-3.5l0,0c2,0,3.5,1.6,3.5,3.5l0,0
		C163.2,5.6,161.6,7.2,159.6,7.2z"/>
	<path class="st1" d="M485.6,127.7h-21.3c-2,0-3.5-1.6-3.5-3.5l0,0c0-2,1.6-3.5,3.5-3.5h21.3c2,0,3.5,1.6,3.5,3.5l0,0
		C489.2,126.1,487.6,127.7,485.6,127.7z"/>
	<path class="st1" d="M506.9,127.7L506.9,127.7c-2,0-3.5-1.6-3.5-3.5l0,0c0-2,1.6-3.5,3.5-3.5l0,0c2,0,3.5,1.6,3.5,3.5l0,0
		C510.4,126.1,508.8,127.7,506.9,127.7z"/>
	<path class="st1" d="M556.5,99.3h-21.3c-2,0-3.5-1.6-3.5-3.5l0,0c0-2,1.6-3.5,3.5-3.5h21.3c2,0,3.5,1.6,3.5,3.5l0,0
		C560,97.7,558.5,99.3,556.5,99.3z"/>
	<path class="st1" d="M577.8,99.3L577.8,99.3c-2,0-3.5-1.6-3.5-3.5l0,0c0-2,1.6-3.5,3.5-3.5l0,0c2,0,3.5,1.6,3.5,3.5l0,0
		C581.3,97.7,579.7,99.3,577.8,99.3z"/>
	<path class="st1" d="M202.2,35.5L202.2,35.5c-2,0-3.5-1.6-3.5-3.5l0,0c0-2,1.6-3.5,3.5-3.5l0,0c2,0,3.5,1.6,3.5,3.5l0,0
		C205.7,33.9,204.1,35.5,202.2,35.5z"/>
	<path class="st1" d="M358.1,7.2h-49.6c-2,0-3.5-1.6-3.5-3.5l0,0c0-2,1.6-3.5,3.5-3.5h49.6c2,0,3.5,1.6,3.5,3.5l0,0
		C361.6,5.6,360,7.2,358.1,7.2z"/>
	<path class="st1" d="M393.5,7.2L393.5,7.2c-2,0-3.5-1.6-3.5-3.5l0,0c0-2,1.6-3.5,3.5-3.5l0,0c2,0,3.5,1.6,3.5,3.5l0,0
		C397.1,5.6,395.5,7.2,393.5,7.2z"/>
	<path class="st1" d="M613.2,35.5h-49.6c-2,0-3.5-1.6-3.5-3.5l0,0c0-2,1.6-3.5,3.5-3.5h49.6c2,0,3.5,1.6,3.5,3.5l0,0
		C616.7,33.9,615.1,35.5,613.2,35.5z"/>
	<path class="st1" d="M648.6,35.5L648.6,35.5c-2,0-3.5-1.6-3.5-3.5l0,0c0-2,1.6-3.5,3.5-3.5l0,0c2,0,3.5,1.6,3.5,3.5l0,0
		C652.2,33.9,650.6,35.5,648.6,35.5z"/>
	<path class="st1" d="M432.5,56.8c0-15.7,12.7-28.4,28.4-28.3l0,0c15.6,0,28.3,12.7,28.3,28.3v35.5c0,3.9-3.2,7.1-7.1,7.1l0,0
		c-3.9,0-7.1-3.2-7.1-7.1V56.8c0-7.8-6.3-14.2-14.2-14.2l0,0c-7.8,0-14.2,6.3-14.2,14.2V71c0,7.8,6.3,14.2,14.2,14.2l0,0
		c3.9,0,7.1,3.2,7.1,7.1l0,0c0,3.9-3.2,7.1-7.1,7.1l0,0c-15.7,0-28.3-12.7-28.3-28.3L432.5,56.8L432.5,56.8z"/>
	<path class="st1" d="M326.2,99.3L326.2,99.3c-15.7,0-28.3-12.7-28.3-28.3V35.5c0-3.9,3.2-7.1,7.1-7.1l0,0c3.9,0,7.1,3.2,7.1,7.1
		v35.4c0,7.8,6.3,14.2,14.2,14.2l0,0h7c4,0,7.2-3.2,7.2-7.2V35.5c0-3.9,3.2-7.1,7.1-7.1l0,0c3.9,0,7.1,3.2,7.1,7.1v49.6
		c0,7.8-6.3,14.2-14.2,14.2C340.5,99.3,326.2,99.3,326.2,99.3z"/>
	<path class="st1" d="M99.4,21.3v70.9c0,3.9-3.2,7.1-7.1,7.1l0,0c-3.9,0-7.1-3.2-7.1-7.1V21.3c0-3.9-3.2-7.1-7.1-7.1l0,0
		c-3.9,0-7.1,3.2-7.1,7.1v14.2c0,11.7-9.5,21.3-21.3,21.3l0,0c-11.7,0-21.3-9.5-21.3-21.3V21.3c0-3.9-3.2-7.1-7.1-7.1l0,0
		c-3.9,0-7.1,3.2-7.1,7.1v70.9c0,3.9-3.2,7.1-7.1,7.1l0,0c-3.9,0-7.1-3.2-7.1-7.1V21.3C0,9.6,9.5,0,21.3,0l0,0
		C33,0,42.6,9.5,42.6,21.3v14.2c0,3.9,3.2,7.1,7.1,7.1l0,0c3.9,0,7.1-3.2,7.1-7.1V21.3C56.8,9.6,66.3,0,78.1,0l0,0
		C89.9,0.1,99.4,9.6,99.4,21.3z"/>
	<path class="st1" d="M397.1,42.6c3.9,0,7.1,3.2,7.1,7.1v49.6l0,0c0,15.7,12.7,28.3,28.3,28.3l0,0c3.9,0,7.1-3.2,7.1-7.1l0,0
		c0-3.9-3.2-7.1-7.1-7.1l0,0c-7.8,0-14.2-6.3-14.2-14.2l0,0V42.5c0-7.8-6.3-14.2-14.2-14.2H397c-15.7,0-28.3,12.7-28.3,28.3v21.3
		c0,11.7,9.5,21.3,21.3,21.3l0,0l0,0c3.9,0,7.1-3.2,7.1-7.1l0,0c0-3.9-3.2-7.1-7.1-7.1l0,0l0,0c-3.9,0-7.1-3.2-7.1-7.1V56.6
		C382.9,48.9,389.2,42.6,397.1,42.6"/>
</g>
</svg>
