<?xml version="1.0" encoding="UTF-8"?>
<svg id="Layer_2" data-name="Layer 2" xmlns="http://www.w3.org/2000/svg" viewBox="0 0 60 39">
  <defs>
    <style>
      .cls-1 {
        fill: #0038b8;
      }

      .cls-1, .cls-2, .cls-3 {
        stroke-width: 0px;
      }

      .cls-2 {
        fill: #d82727;
      }

      .cls-3 {
        fill: #fff;
      }
    </style>
  </defs>
  <g id="Layer_1-2" data-name="Layer 1">
    <g>
      <rect class="cls-3" y="0" width="60" height="39"/>
      <rect class="cls-2" x="0" y="36" width="60" height="3"/>
      <rect class="cls-2" y="30" width="60" height="3"/>
      <rect class="cls-2" x="0" y="24" width="60" height="3"/>
      <rect class="cls-2" y="18" width="60" height="3"/>
      <rect class="cls-2" y="12" width="60" height="3"/>
      <rect class="cls-2" y="6" width="60" height="3"/>
      <rect class="cls-2" width="60" height="3"/>
      <rect class="cls-1" x="0" width="26" height="21"/>
      <polygon class="cls-3" points="4.99 5.17 3.75 5.82 3.98 4.44 2.98 3.46 4.37 3.26 4.99 2 5.61 3.26 7 3.46 5.99 4.44 6.23 5.82 4.99 5.17"/>
      <polygon class="cls-3" points="4.99 11.26 3.75 11.91 3.98 10.53 2.98 9.55 4.37 9.35 4.99 8.09 5.61 9.35 7 9.55 5.99 10.53 6.23 11.91 4.99 11.26"/>
      <polygon class="cls-3" points="4.99 17.35 3.75 18 3.98 16.62 2.98 15.64 4.37 15.43 4.99 14.18 5.61 15.43 7 15.64 5.99 16.62 6.23 18 4.99 17.35"/>
      <polygon class="cls-3" points="20.99 5.17 19.75 5.82 19.98 4.44 18.98 3.46 20.37 3.26 20.99 2 21.61 3.26 23 3.46 21.99 4.44 22.23 5.82 20.99 5.17"/>
      <polygon class="cls-3" points="20.99 11.26 19.75 11.91 19.98 10.53 18.98 9.55 20.37 9.35 20.99 8.09 21.61 9.35 23 9.55 21.99 10.53 22.23 11.91 20.99 11.26"/>
      <polygon class="cls-3" points="20.99 17.35 19.75 18 19.98 16.62 18.98 15.64 20.37 15.43 20.99 14.18 21.61 15.43 23 15.64 21.99 16.62 22.23 18 20.99 17.35"/>
      <polygon class="cls-3" points="12.99 5.17 11.75 5.82 11.98 4.44 10.98 3.46 12.37 3.26 12.99 2 13.61 3.26 15 3.46 13.99 4.44 14.23 5.82 12.99 5.17"/>
      <polygon class="cls-3" points="12.99 11.26 11.75 11.91 11.98 10.53 10.98 9.55 12.37 9.35 12.99 8.09 13.61 9.35 15 9.55 13.99 10.53 14.23 11.91 12.99 11.26"/>
      <polygon class="cls-3" points="12.99 17.35 11.75 18 11.98 16.62 10.98 15.64 12.37 15.43 12.99 14.18 13.61 15.43 15 15.64 13.99 16.62 14.23 18 12.99 17.35"/>
    </g>
  </g>
</svg>