<svg width="46" height="46" viewBox="0 0 46 46" fill="none" xmlns="http://www.w3.org/2000/svg">
<path d="M40 1H6C3.24 1 1 3.24 1 6V40C1 42.76 3.24 45 6 45H25V29H21C19.9 29 19 28.1 19 27V23C19 21.9 19.9 21 21 21H25V17C25 11.47 29.47 7 34.99 7H39C40.1 7 41 7.9 41 9V13C41 14.1 40.1 15 39 15H35C33.9 15 33 15.9 33 17V21H36.44C37.74 21 38.7 22.22 38.38 23.49L37.38 27.49C37.16 28.38 36.36 29 35.44 29H33V45H40C42.76 45 45 42.76 45 40V6C45 3.24 42.76 1 40 1Z" fill="#3B579D" stroke="#3B579D" stroke-width="2" stroke-linecap="round" stroke-linejoin="round"/>
</svg>
