<svg width="46" height="46" viewBox="0 0 46 46" fill="none" xmlns="http://www.w3.org/2000/svg">
<path d="M40 1H6C3.23858 1 1 3.23858 1 6V40C1 42.7614 3.23858 45 6 45H40C42.7614 45 45 42.7614 45 40V6C45 3.23858 42.7614 1 40 1Z" fill="#E94335" stroke="#E94335" stroke-width="2" stroke-linecap="round" stroke-linejoin="round"/>
<path d="M35.93 11C35.32 11 34.73 11.18 34.23 11.52L23 19L11.77 11.52C11.27 11.18 10.67 11 10.07 11C8.37 11 7 12.37 7 14.07V35H15V21.67L23 27L31 21.67V35H39V14.07C39 12.37 37.63 11 35.93 11Z" fill="white" stroke="#E94335" stroke-width="2" stroke-linecap="round" stroke-linejoin="round"/>
</svg>
