<svg width="46" height="46" viewBox="0 0 46 46" fill="none" xmlns="http://www.w3.org/2000/svg">
<path d="M41 45H5C2.79 45 1 43.21 1 41V5C1 2.79 2.79 1 5 1H41C43.21 1 45 2.79 45 5V41C45 43.21 43.21 45 41 45Z" fill="#8A47A5" stroke="#8A47A5" stroke-width="2" stroke-linecap="round" stroke-linejoin="round"/>
<path d="M23 35C29.6274 35 35 29.6274 35 23C35 16.3726 29.6274 11 23 11C16.3726 11 11 16.3726 11 23C11 29.6274 16.3726 35 23 35Z" fill="white" stroke="#8A47A5" stroke-width="2" stroke-linecap="round" stroke-linejoin="round"/>
<path d="M37 11C38.1046 11 39 10.1046 39 9C39 7.89543 38.1046 7 37 7C35.8954 7 35 7.89543 35 9C35 10.1046 35.8954 11 37 11Z" fill="white" stroke="white" stroke-width="2" stroke-linecap="round" stroke-linejoin="round"/>
</svg>
