<svg width="46" height="46" viewBox="0 0 46 46" fill="none" xmlns="http://www.w3.org/2000/svg">
<path d="M12.24 42.19C15.42 43.98 19.09 45 23 45C35.15 45 45 35.15 45 23C45 10.85 35.15 1 23 1C10.85 1 1 10.85 1 23C1 26.91 2.02 30.58 3.81 33.76L1 45L12.24 42.19Z" fill="#00A9FF" stroke="#00A9FF" stroke-width="2" stroke-linecap="round" stroke-linejoin="round"/>
<path d="M19.26 23.63C18.51 23.25 17.59 23.4 17 24L11 30L16.89 19C17.39 18.07 18.55 17.73 19.47 18.24L26.61 22.22C27.42 22.67 28.43 22.5 29.04 21.8L35 14.99L28.86 26.39C28.38 27.29 27.27 27.64 26.36 27.18L19.27 23.63H19.26Z" fill="white" stroke="white" stroke-width="2" stroke-linecap="round" stroke-linejoin="round"/>
</svg>
