<svg width="46" height="46" viewBox="0 0 46 46" fill="none" xmlns="http://www.w3.org/2000/svg">
<path d="M1.00253 45.9824C0.742526 45.9824 0.482526 45.8824 0.292526 45.6924C0.042526 45.4424 -0.057474 45.0824 0.032526 44.7424L1.00253 40.8624C1.13253 40.3224 1.68253 40.0024 2.21253 40.1324C2.75253 40.2624 3.07253 40.8124 2.94253 41.3424L2.37253 43.6024L4.63253 43.0324C5.17253 42.9024 5.71253 43.2224 5.84253 43.7624C5.97253 44.3024 5.65253 44.8424 5.11253 44.9724L1.23253 45.9424C1.15253 45.9624 1.07253 45.9724 0.992526 45.9724L1.00253 45.9824Z" fill="#3C78F0"/>
<path d="M23.0025 45.9824C22.2325 45.9824 21.4625 45.9424 20.7025 45.8724C20.1525 45.8224 19.7525 45.3324 19.8025 44.7824C19.8525 44.2324 20.3525 43.8324 20.8925 43.8824C23.5225 44.1424 26.2225 43.9124 28.7525 43.1924C29.2825 43.0424 29.8325 43.3524 29.9825 43.8824C30.1325 44.4124 29.8225 44.9624 29.2925 45.1124C27.2525 45.6924 25.1325 45.9824 22.9925 45.9824H23.0025ZM16.7325 45.0724C16.6425 45.0724 16.5425 45.0624 16.4425 45.0324C14.9425 44.5824 13.4925 43.9824 12.1125 43.2424L9.1625 43.9824C8.6325 44.1224 8.0825 43.7924 7.9525 43.2524C7.8225 42.7124 8.1425 42.1724 8.6825 42.0424L12.0125 41.2124C12.2625 41.1524 12.5225 41.1824 12.7425 41.3124C14.0925 42.0724 15.5325 42.6824 17.0225 43.1224C17.5525 43.2824 17.8525 43.8324 17.6925 44.3624C17.5625 44.7924 17.1625 45.0724 16.7325 45.0724ZM32.8925 43.6424C32.5225 43.6424 32.1725 43.4424 32.0025 43.0924C31.7525 42.6024 31.9525 42.0024 32.4425 41.7524C34.8225 40.5524 36.9225 38.9424 38.6925 36.9424C39.0625 36.5324 39.6925 36.4924 40.1025 36.8624C40.5125 37.2324 40.5525 37.8624 40.1825 38.2724C38.2425 40.4524 35.9425 42.2224 33.3325 43.5324C33.1925 43.6024 33.0325 43.6424 32.8825 43.6424H32.8925ZM3.0025 37.9924C2.9225 37.9924 2.8425 37.9924 2.7625 37.9624C2.2225 37.8324 1.9025 37.2824 2.0325 36.7524L2.7525 33.8824C1.9925 32.4724 1.3825 30.9924 0.932502 29.4624C0.772502 28.9324 1.0825 28.3724 1.6125 28.2224C2.1425 28.0624 2.7025 28.3724 2.8525 28.9024C3.2925 30.4124 3.9125 31.8724 4.6925 33.2524C4.8125 33.4724 4.8525 33.7324 4.7925 33.9824L3.9825 37.2324C3.8725 37.6824 3.4625 37.9924 3.0125 37.9924H3.0025ZM41.8925 35.2624C41.7225 35.2624 41.5425 35.2124 41.3825 35.1224C40.9125 34.8424 40.7525 34.2224 41.0425 33.7524C42.4125 31.4624 43.3225 28.9724 43.7425 26.3424C43.8325 25.7924 44.3425 25.4224 44.8925 25.5124C45.4425 25.6024 45.8125 26.1124 45.7225 26.6624C45.2625 29.5424 44.2625 32.2724 42.7625 34.7724C42.5725 35.0824 42.2425 35.2624 41.9025 35.2624H41.8925ZM1.1025 26.1024C0.592502 26.1024 0.162502 25.7124 0.112502 25.2024C0.0425024 24.4724 0.00250244 23.7224 0.00250244 22.9824C0.00250244 20.8124 0.302502 18.6624 0.902502 16.6024C1.0525 16.0724 1.6125 15.7624 2.1425 15.9224C2.6725 16.0724 2.9825 16.6324 2.8225 17.1624C2.2825 19.0524 2.0025 21.0124 2.0025 22.9924C2.0025 23.6724 2.0325 24.3524 2.1025 25.0224C2.1525 25.5724 1.7525 26.0624 1.2025 26.1124C1.1725 26.1124 1.1325 26.1124 1.1025 26.1124V26.1024ZM44.9925 23.3624C44.4525 23.3624 44.0125 22.9324 43.9925 22.3924C43.9225 19.7224 43.3525 17.1324 42.3025 14.6924C42.0825 14.1824 42.3225 13.5924 42.8225 13.3824C43.3325 13.1624 43.9225 13.4024 44.1325 13.9024C45.2825 16.5724 45.9025 19.4124 45.9825 22.3424C46.0025 22.8924 45.5625 23.3524 45.0125 23.3724C45.0125 23.3724 44.9925 23.3724 44.9825 23.3724L44.9925 23.3624ZM3.3825 14.0224C3.2325 14.0224 3.0725 13.9924 2.9325 13.9124C2.4425 13.6624 2.2425 13.0624 2.4925 12.5724C3.8125 9.97243 5.5925 7.68243 7.7825 5.74243C8.1925 5.37243 8.8325 5.41243 9.1925 5.83243C9.5625 6.24243 9.5225 6.88243 9.1025 7.24243C7.1025 9.01243 5.4825 11.1024 4.2725 13.4724C4.0925 13.8224 3.7425 14.0224 3.3825 14.0224ZM41.2325 11.6524C40.9125 11.6524 40.5925 11.5024 40.4025 11.2124C38.9125 9.01243 37.0325 7.13243 34.8325 5.62243C34.3725 5.31243 34.2625 4.69243 34.5725 4.23243C34.8825 3.77243 35.5025 3.66243 35.9625 3.97243C38.3725 5.62243 40.4225 7.67243 42.0525 10.0924C42.3625 10.5524 42.2425 11.1724 41.7825 11.4824C41.6125 11.6024 41.4125 11.6524 41.2225 11.6524H41.2325ZM11.7925 5.05243C11.4525 5.05243 11.1225 4.88243 10.9325 4.56243C10.6525 4.08243 10.8125 3.47243 11.2825 3.19243C13.7925 1.70243 16.5325 0.722427 19.4125 0.262427C19.9525 0.182427 20.4725 0.552427 20.5525 1.09243C20.6425 1.64243 20.2625 2.15243 19.7225 2.23243C17.0925 2.64243 14.6025 3.54243 12.3025 4.90243C12.1425 4.99243 11.9625 5.04243 11.7925 5.04243V5.05243ZM31.7625 3.80243C31.6325 3.80243 31.4925 3.77243 31.3625 3.72243C28.9325 2.66243 26.3425 2.08243 23.6725 2.00243C23.1225 1.98243 22.6825 1.52243 22.7025 0.972427C22.7225 0.422427 23.1425 -0.0375731 23.7325 0.00242691C26.6525 0.0924269 29.4925 0.732427 32.1625 1.89243C32.6725 2.11243 32.9025 2.70243 32.6825 3.21243C32.5225 3.59243 32.1525 3.81243 31.7625 3.81243V3.80243Z" fill="#3C78F0"/>
<path d="M12.5325 37.6024C15.4825 39.7224 19.0925 40.9824 23.0025 40.9824C32.9425 40.9824 41.0025 32.9224 41.0025 22.9824C41.0025 13.0424 32.9425 4.98242 23.0025 4.98242C13.0625 4.98242 5.0025 13.0424 5.0025 22.9824C5.0025 26.8924 6.2625 30.5024 8.3825 33.4524L7.0025 38.9824L12.5325 37.6024Z" fill="#3C78F0" stroke="#3C78F0" stroke-width="2" stroke-linejoin="round"/>
</svg>
