<svg width="46" height="46" viewBox="0 0 46 46" fill="none" xmlns="http://www.w3.org/2000/svg">
<path d="M23 45C35.1503 45 45 35.1503 45 23C45 10.8497 35.1503 1 23 1C10.8497 1 1 10.8497 1 23C1 35.1503 10.8497 45 23 45Z" fill="#1E96C8" stroke="#1E96C8" stroke-width="2" stroke-linecap="round" stroke-linejoin="round"/>
<path d="M33 10.51L7 23L16.3 24.55L25 17.24C26.2 16.23 27.85 17.76 26.94 19.03L20.93 27.48L29 37.84L33 10.52" fill="white"/>
<path d="M33 10.51L7 23L16.3 24.55L25 17.24C26.2 16.23 27.85 17.76 26.94 19.03L20.93 27.48L29 37.84L33 10.52" stroke="white" stroke-width="2" stroke-linecap="round" stroke-linejoin="round"/>
</svg>
