<svg width="46" height="46" viewBox="0 0 46 46" fill="none" xmlns="http://www.w3.org/2000/svg">
<path d="M12.24 42.19C15.42 43.98 19.09 45 23 45C35.15 45 45 35.15 45 23C45 10.85 35.15 1 23 1C10.85 1 1 10.85 1 23C1 26.91 2.02 30.58 3.81 33.76L1 45L12.24 42.19Z" fill="#0DC143" stroke="#0DC143" stroke-width="2" stroke-linecap="round" stroke-linejoin="round"/>
<path d="M13 13.05V15.05C13 24.96 21.04 33 30.95 33C32.08 33 33 32.08 33 30.95V27.05C33 25.92 32.08 25 30.95 25H28.27C27.49 25 26.78 25.44 26.44 26.13C25.77 27.47 23.94 27.66 23 26.49L18.59 20.97C17.77 19.95 18.11 18.44 19.27 17.85L19.87 17.55C20.56 17.2 21 16.49 21 15.72V13.04C21 11.91 20.08 10.99 18.95 10.99H15.05C13.92 10.99 13 11.91 13 13.04V13.05Z" fill="white"/>
</svg>
