<svg width="57" height="213" viewBox="0 0 57 213" fill="none" xmlns="http://www.w3.org/2000/svg">
<path d="M42.52 10.63C42.52 4.76 37.76 0 31.89 0H24.8C18.93 0 14.17 4.76 14.17 10.63V17.72C14.17 23.59 18.93 28.35 24.8 28.35H31.89C37.76 28.35 42.52 23.59 42.52 17.72V10.63Z" fill="#231F20"/>
<path d="M38.98 148.82C40.94 148.82 42.52 147.23 42.52 145.28V53.15C42.52 51.19 44.11 49.61 46.06 49.61C48.02 49.61 49.6 51.2 49.6 53.15V88.58C49.6 90.54 51.19 92.12 53.14 92.12C55.1 92.12 56.68 90.53 56.68 88.58V49.6C56.68 41.77 50.33 35.43 42.51 35.43H14.17C6.35 35.43 0 41.78 0 49.61V88.59C0 90.55 1.59 92.13 3.54 92.13C5.5 92.13 7.08 90.54 7.08 88.59V53.16C7.08 51.2 8.67 49.62 10.62 49.62C12.58 49.62 14.16 51.21 14.16 53.16V145.39C14.16 147.31 15.68 148.87 17.6 148.93C19.6 148.99 21.25 147.39 21.25 145.39V99.22C21.25 95.31 24.42 92.13 28.34 92.13C32.25 92.13 35.43 95.3 35.43 99.22V145.28C35.43 147.24 37.02 148.82 38.97 148.82H38.98Z" fill="#231F20"/>
<path d="M3.55 106.3H3.54C1.58491 106.3 0 107.885 0 109.84V131.11C0 133.065 1.58491 134.65 3.54 134.65H3.55C5.50509 134.65 7.09 133.065 7.09 131.11V109.84C7.09 107.885 5.50509 106.3 3.55 106.3Z" fill="#231F20"/>
<path d="M3.55 148.82H3.54C1.58491 148.82 0 150.405 0 152.36V152.37C0 154.325 1.58491 155.91 3.54 155.91H3.55C5.50509 155.91 7.09 154.325 7.09 152.37V152.36C7.09 150.405 5.50509 148.82 3.55 148.82Z" fill="#231F20"/>
<path d="M53.16 134.65H53.15C51.1949 134.65 49.61 136.235 49.61 138.19V138.2C49.61 140.155 51.1949 141.74 53.15 141.74H53.16C55.1151 141.74 56.7 140.155 56.7 138.2V138.19C56.7 136.235 55.1151 134.65 53.16 134.65Z" fill="#231F20"/>
<path d="M17.72 191.34H17.71C15.7549 191.34 14.17 192.925 14.17 194.88V194.89C14.17 196.845 15.7549 198.43 17.71 198.43H17.72C19.6751 198.43 21.26 196.845 21.26 194.89V194.88C21.26 192.925 19.6751 191.34 17.72 191.34Z" fill="#231F20"/>
<path d="M38.98 205.51H38.97C37.0149 205.51 35.43 207.095 35.43 209.05V209.06C35.43 211.015 37.0149 212.6 38.97 212.6H38.98C40.9351 212.6 42.52 211.015 42.52 209.06V209.05C42.52 207.095 40.9351 205.51 38.98 205.51Z" fill="#231F20"/>
<path d="M17.72 155.91H17.71C15.7549 155.91 14.17 157.495 14.17 159.45V173.63C14.17 175.585 15.7549 177.17 17.71 177.17H17.72C19.6751 177.17 21.26 175.585 21.26 173.63V159.45C21.26 157.495 19.6751 155.91 17.72 155.91Z" fill="#231F20"/>
<path d="M38.98 162.99H38.97C37.0149 162.99 35.43 164.575 35.43 166.53V180.71C35.43 182.665 37.0149 184.25 38.97 184.25H38.98C40.9351 184.25 42.52 182.665 42.52 180.71V166.53C42.52 164.575 40.9351 162.99 38.98 162.99Z" fill="#231F20"/>
<path d="M53.16 106.3H53.15C51.1949 106.3 49.61 107.885 49.61 109.84V124.02C49.61 125.975 51.1949 127.56 53.15 127.56H53.16C55.1151 127.56 56.7 125.975 56.7 124.02V109.84C56.7 107.885 55.1151 106.3 53.16 106.3Z" fill="#231F20"/>
</svg>
