<svg width="100" height="192" viewBox="0 0 100 192" fill="none" xmlns="http://www.w3.org/2000/svg">
<path d="M24.81 49.61H24.8C22.8449 49.61 21.26 51.1949 21.26 53.15V53.16C21.26 55.1151 22.8449 56.7 24.8 56.7H24.81C26.7651 56.7 28.35 55.1151 28.35 53.16V53.15C28.35 51.1949 26.7651 49.61 24.81 49.61Z" fill="#231F20"/>
<path d="M3.55 120.47H3.54C1.58491 120.47 0 122.055 0 124.01V124.02C0 125.975 1.58491 127.56 3.54 127.56H3.55C5.50509 127.56 7.09 125.975 7.09 124.02V124.01C7.09 122.055 5.50509 120.47 3.55 120.47Z" fill="#231F20"/>
<path d="M95.67 99.21H95.66C93.7049 99.21 92.12 100.795 92.12 102.75V102.76C92.12 104.715 93.7049 106.3 95.66 106.3H95.67C97.6251 106.3 99.21 104.715 99.21 102.76V102.75C99.21 100.795 97.6251 99.21 95.67 99.21Z" fill="#231F20"/>
<path d="M77.96 159.44V159.45C77.96 161.405 79.5449 162.99 81.5 162.99H81.51C83.4651 162.99 85.05 161.405 85.05 159.45V159.44C85.05 157.485 83.4651 155.9 81.51 155.9H81.5C79.5449 155.9 77.96 157.485 77.96 159.44Z" fill="#231F20"/>
<path d="M31.9 184.25H31.89C29.9349 184.25 28.35 185.835 28.35 187.79V187.8C28.35 189.755 29.9349 191.34 31.89 191.34H31.9C33.8551 191.34 35.44 189.755 35.44 187.8V187.79C35.44 185.835 33.8551 184.25 31.9 184.25Z" fill="#231F20"/>
<path d="M74.41 49.61H74.4C72.4449 49.61 70.86 51.1949 70.86 53.15V53.16C70.86 55.1151 72.4449 56.7 74.4 56.7H74.41C76.3651 56.7 77.95 55.1151 77.95 53.16V53.15C77.95 51.1949 76.3651 49.61 74.41 49.61Z" fill="#231F20"/>
<path d="M35.43 42.52V46.06C35.43 51.93 40.19 56.69 46.06 56.69H53.15C59.02 56.69 63.78 51.93 63.78 46.06V42.52" fill="#231F20"/>
<path d="M54.12 8.64L68.99 32.43C70.16 34.3 72.21 35.43 74.41 35.43C76.37 35.43 77.95 37.02 77.95 38.97C77.95 40.93 76.36 42.51 74.41 42.51H24.8C22.84 42.51 21.26 40.92 21.26 38.97C21.26 37.01 22.85 35.43 24.8 35.43C27 35.43 29.05 34.29 30.22 32.43L45.09 8.64C45.72 7.62 46.06 6.45 46.06 5.25V3.54C46.06 1.58 47.65 0 49.6 0C51.56 0 53.14 1.59 53.14 3.54V5.25C53.14 6.45 53.48 7.62 54.11 8.64H54.12Z" fill="#231F20"/>
<path d="M57.28 74.38C59.88 87.93 66.15 100.5 75.42 110.72C76.97 112.43 79.19 113.38 81.49 113.38C83.45 113.38 85.03 114.97 85.03 116.92C85.03 118.88 83.44 120.46 81.49 120.46H17.72C15.76 120.46 14.18 118.87 14.18 116.92C14.18 114.96 15.77 113.38 17.72 113.38C20.03 113.38 22.24 112.43 23.79 110.72C33.06 100.5 39.33 87.93 41.93 74.38C42.28 72.55 40.86 70.86 39 70.86H38.97H3.55C1.59 70.87 0 69.28 0 67.32C0 65.36 1.59 63.78 3.54 63.78H95.66C97.62 63.78 99.2 65.37 99.2 67.32C99.2 69.28 97.61 70.86 95.66 70.86H60.21C58.35 70.86 56.93 72.55 57.28 74.38Z" fill="#231F20"/>
<path d="M42.52 120.47V134.64C42.52 138.55 39.35 141.73 35.43 141.73H31.89C29.93 141.73 28.35 140.14 28.35 138.19C28.35 136.23 29.94 134.65 31.89 134.65C33.85 134.65 35.43 133.06 35.43 131.11V120.48" fill="#231F20"/>
<path d="M56.69 120.47V134.64C56.69 138.55 59.86 141.73 63.78 141.73H67.32C69.28 141.73 70.86 140.14 70.86 138.19C70.86 136.23 69.27 134.65 67.32 134.65C65.36 134.65 63.78 133.06 63.78 131.11V120.48" fill="#231F20"/>
<path d="M31.9 148.82H31.89C29.9349 148.82 28.35 150.405 28.35 152.36V173.63C28.35 175.585 29.9349 177.17 31.89 177.17H31.9C33.8551 177.17 35.44 175.585 35.44 173.63V152.36C35.44 150.405 33.8551 148.82 31.9 148.82Z" fill="#231F20"/>
<path d="M95.67 77.95H95.66C93.7049 77.95 92.12 79.5349 92.12 81.49V88.58C92.12 90.5351 93.7049 92.12 95.66 92.12H95.67C97.6251 92.12 99.21 90.5351 99.21 88.58V81.49C99.21 79.5349 97.6251 77.95 95.67 77.95Z" fill="#231F20"/>
<path d="M81.5 127.56H81.49C79.5349 127.56 77.95 129.145 77.95 131.1V138.19C77.95 140.145 79.5349 141.73 81.49 141.73H81.5C83.4551 141.73 85.04 140.145 85.04 138.19V131.1C85.04 129.145 83.4551 127.56 81.5 127.56Z" fill="#231F20"/>
<path d="M3.55 77.95H3.54C1.58491 77.95 0 79.5349 0 81.49V102.76C0 104.715 1.58491 106.3 3.54 106.3H3.55C5.50509 106.3 7.09 104.715 7.09 102.76V81.49C7.09 79.5349 5.50509 77.95 3.55 77.95Z" fill="#231F20"/>
</svg>
