<?xml version="1.0" standalone="no"?>
<!DOCTYPE svg PUBLIC "-//W3C//DTD SVG 20010904//EN"
 "http://www.w3.org/TR/2001/REC-SVG-20010904/DTD/svg10.dtd">
<svg version="1.0" xmlns="http://www.w3.org/2000/svg"
 width="157.000000pt" height="157.000000pt" viewBox="0 0 157.000000 157.000000"
 preserveAspectRatio="xMidYMid meet">
<metadata>
Created by potrace 1.14, written by Peter Selinger 2001-2017
</metadata>
<g transform="translate(0.000000,157.000000) scale(0.100000,-0.100000)"
fill="#000000" stroke="none">
<path d="M180 1280 c-46 -8 -79 -26 -113 -62 -58 -60 -59 -68 -59 -478 0 -206
1 -383 1 -392 1 -26 41 -58 72 -58 18 0 35 9 48 26 20 26 21 38 21 403 1 413
0 407 62 417 26 5 38 1 53 -16 17 -19 21 -41 25 -144 6 -112 8 -124 35 -164
92 -138 297 -124 371 26 18 35 20 58 24 239 0 31 34 63 65 63 14 0 36 -10 49
-23 l23 -23 1 -359 c0 -198 1 -370 1 -382 2 -56 77 -82 119 -43 26 24 24 -11
24 437 1 380 -3 412 -58 468 -47 49 -90 68 -154 68 -85 0 -153 -41 -193 -118
-16 -32 -21 -61 -23 -145 -2 -129 0 -116 -24 -140 -25 -25 -61 -26 -90 -2 -21
17 -23 28 -25 134 -2 92 -7 122 -23 154 -45 88 -135 132 -232 114z"/>
<path d="M1270 984 c-57 -24 -99 -73 -116 -133 -25 -83 -7 -155 52 -215 39
-38 70 -53 129 -60 82 -12 114 -63 70 -113 -20 -24 -29 -26 -111 -29 -49 -1
-94 -2 -101 -3 -21 -2 -53 -44 -53 -68 0 -13 11 -35 25 -48 22 -23 31 -25 122
-25 117 0 156 10 205 50 45 37 67 80 75 141 14 120 -70 221 -197 236 -29 3
-56 13 -66 24 -23 25 -21 67 5 92 18 19 35 22 109 24 48 1 96 5 108 7 44 11
55 83 18 120 -22 22 -223 22 -274 0z"/>
</g>
</svg>
